<?xml version="1.0" standalone="no"?><!DOCTYPE svg PUBLIC "-//W3C//DTD SVG 1.1//EN" "http://www.w3.org/Graphics/SVG/1.1/DTD/svg11.dtd"><svg t="1754984985896" class="icon" viewBox="0 0 1509 1024" version="1.1" xmlns="http://www.w3.org/2000/svg" p-id="6346" width="294.7265625" height="200" xmlns:xlink="http://www.w3.org/1999/xlink"><path d="M504.448652 833.424086a30.679457 30.679457 0 1 1-4.492008-43.199734 30.679457 30.679457 0 0 1 4.492008 43.199734z m487.430629-107.521462C902.994872 843.937296 713.852673 804.178248 592.855188 809.817152c0 0-21.504292 1.24247-43.199734 4.778731 0 0 8.219418-3.440687 18.637053-7.072523 84.965849-29.436987 125.202769-35.362614 177.482094-62.027937 97.199402-49.794384 194.016505-158.271592 213.704879-271.049659C922.014224 583.018547 809.427306 676.203814 706.875725 714.146944c-70.151781 25.805151-197.074894 51.036854-197.074893 51.036854l-5.161031-2.67609c-86.01717-41.957264-88.788834-229.37912 67.953564-289.20884 68.718161-26.378599 134.473509-11.851255 208.734999-29.532561 79.231371-19.114927 170.983019-78.275625 208.352701-155.977802 41.766115 124.055874 92.038372 318.072379 1.911492 438.591992z" fill="#6DB33F" p-id="6347"></path><path d="M1169.45695 1023.999904H380.583927A380.291465 380.291465 0 0 1 323.90817 267.622258C373.033531 199.573119 434.392446 123.113412 523.468004 70.929663a518.110086 518.110086 0 0 1 588.070718 44.824503l0.955746 0.860171a740.607832 740.607832 0 0 1 111.631172 119.563866 372.741069 372.741069 0 0 1 63.461556 121.762083c0.860172 3.153963 1.624769 4.969881 2.007067 6.116777 1.911493 0.955746 5.256605 2.389366 7.932695 3.536261l10.226486 4.492008a347.604941 347.604941 0 0 1 129.694777 102.360432 340.150119 340.150119 0 0 1-267.608973 549.55414zM784.769051 76.472991a441.841529 441.841529 0 0 0-222.688895 60.403169c-76.93758 45.111227-132.466442 114.68956-176.526348 175.952899l-1.815918 2.67609A53.617369 53.617369 0 0 1 344.361142 341.979322a303.831759 303.831759 0 0 0 36.31836 605.560876h788.873022a263.690413 263.690413 0 0 0 207.683678-426.071715 273.152302 273.152302 0 0 0-62.601385-58.300526 277.166436 277.166436 0 0 0-38.229853-21.599867l-8.506142-3.727411a97.390551 97.390551 0 0 1-30.201584-17.299008 84.965849 84.965849 0 0 1-23.606935-41.957264 296.281363 296.281363 0 0 0-51.323578-96.912678A669.022432 669.022432 0 0 0 1063.082383 174.914864 440.121186 440.121186 0 0 0 784.769051 76.472991z" fill="#6DB33F" p-id="6348"></path></svg>