<svg t="1722617686504" class="icon" viewBox="0 0 1024 1024" version="1.1"
    xmlns="http://www.w3.org/2000/svg" p-id="6170" xmlns:xlink="http://www.w3.org/1999/xlink"
    width="30">
    <path d="M759.010607 853.366519L894.103704 987.904l-282.548148 0.777481 147.455051-135.314962z"
        fill="#2AD4FF" p-id="6171"></path>
    <path d="M416.237037 512l342.77357 341.366519L283.496296 663.703704l132.740741-151.703704z"
        fill="#49DBFF" p-id="6172"></path>
    <path
        d="M759.010607 853.366519L611.44557 988.681481 283.496296 663.703704l475.514311 189.662815z"
        fill="#96EAFF" p-id="6173"></path>
    <path d="M605.928296 36.603259l111.439645 170.899911L887.466667 35.316622" fill="#2AD4FF"
        p-id="6174"></path>
    <path d="M605.928296 36.603259L356.503704 286.340741l361.244444-78.837571L605.928296 36.603259z"
        fill="#00C8FF" p-id="6175"></path>
    <path d="M355.596326 286.601481L416.237037 512l301.130904-304.49683-361.771615 79.098311z"
        fill="#55DDFF" p-id="6176"></path>
    <path d="M129.896296 512l225.70003-225.398519L416.237037 512H129.896296z" fill="#AAEEFF"
        p-id="6177"></path>
    <path d="M283.496296 663.703704l132.740741-151.703704H129.896296" fill="#79E4FF" p-id="6178"></path>
    <path
        d="M129.891556 165.447111V35.319467h261.942044L261.7344 165.447111c-71.552 71.572859-130.487941 130.133333-130.970548 130.133333-0.477867 0-0.872296-58.560474-0.872296-130.133333z"
        fill="#999999" p-id="6179"></path>
    <path
        d="M260.864948 988.686222h-130.967704V725.055526L260.865896 855.988148c72.034607 72.019437 130.972444 131.334637 130.972445 131.815348 0 0.4864-58.937837 0.882726-130.972445 0.882726z"
        fill="#CCCCCC" p-id="6180"></path>
</svg>